<svg width="1060" height="96" viewBox="0 0 1060 96" fill="none" xmlns="http://www.w3.org/2000/svg">
<path fill-rule="evenodd" clip-rule="evenodd" d="M394.069 4C393.914 5.86044 394.018 7.83261 394.41 9.86758L407.87 79.5176C409.53 88.1546 417.53 95.0016 425.76 95.0016H637.281C645.811 95.0016 653.86 88.0136 655.271 79.2016L666.71 7.97858C666.928 6.61847 667.019 5.28769 666.991 4H394.069Z" fill="white"/>
<path fill-rule="evenodd" clip-rule="evenodd" d="M7 43.5C7 23.3419 23.3411 7 43.5 7H1016.5C1036.66 7 1053 23.342 1053 43.5V63H1060V43.5C1060 19.476 1040.52 0 1016.5 0H43.5C19.4749 0 0 19.4761 0 43.5V63H7V43.5Z" fill="white"/>
</svg>
